<mxfile host="app.diagrams.net" modified="2021-06-28T16:25:47.131Z" agent="5.0 (Windows NT 10.0; Win64; x64) AppleWebKit/537.36 (KHTML, like Gecko) Chrome/87.0.4280.88 Safari/537.36" etag="2bnVCGHEtD7tcGMSh2-o" version="14.8.1" type="github">
  <diagram id="tIfJTfWHigymWDPLSlrO" name="Page-1">
    <mxGraphModel dx="1038" dy="490" grid="1" gridSize="10" guides="1" tooltips="1" connect="1" arrows="1" fold="1" page="1" pageScale="1" pageWidth="850" pageHeight="1100" math="0" shadow="0">
      <root>
        <mxCell id="0" />
        <mxCell id="1" parent="0" />
        <mxCell id="c6HZqa-KhIeQ7jRG5_oA-1" value="做&lt;br&gt;手&lt;br&gt;术" style="rounded=1;whiteSpace=wrap;html=1;" vertex="1" parent="1">
          <mxGeometry x="323" y="210" width="80" height="190" as="geometry" />
        </mxCell>
        <mxCell id="c6HZqa-KhIeQ7jRG5_oA-2" value="老色批" style="ellipse;whiteSpace=wrap;html=1;" vertex="1" parent="1">
          <mxGeometry x="140" y="259" width="120" height="80" as="geometry" />
        </mxCell>
        <mxCell id="c6HZqa-KhIeQ7jRG5_oA-3" value="消毒" style="rounded=0;whiteSpace=wrap;html=1;" vertex="1" parent="1">
          <mxGeometry x="500" y="120" width="120" height="60" as="geometry" />
        </mxCell>
        <mxCell id="c6HZqa-KhIeQ7jRG5_oA-4" value="打麻药" style="rounded=0;whiteSpace=wrap;html=1;" vertex="1" parent="1">
          <mxGeometry x="500" y="210" width="120" height="60" as="geometry" />
        </mxCell>
        <mxCell id="c6HZqa-KhIeQ7jRG5_oA-5" value="切除" style="rounded=0;whiteSpace=wrap;html=1;" vertex="1" parent="1">
          <mxGeometry x="500" y="300" width="120" height="60" as="geometry" />
        </mxCell>
        <mxCell id="c6HZqa-KhIeQ7jRG5_oA-6" value="包扎" style="rounded=0;whiteSpace=wrap;html=1;" vertex="1" parent="1">
          <mxGeometry x="500" y="390" width="120" height="60" as="geometry" />
        </mxCell>
        <mxCell id="c6HZqa-KhIeQ7jRG5_oA-7" value="" style="endArrow=classic;html=1;" edge="1" parent="1">
          <mxGeometry width="50" height="50" relative="1" as="geometry">
            <mxPoint x="270" y="300" as="sourcePoint" />
            <mxPoint x="320" y="300" as="targetPoint" />
          </mxGeometry>
        </mxCell>
        <mxCell id="c6HZqa-KhIeQ7jRG5_oA-9" value="" style="endArrow=classic;html=1;entryX=0;entryY=0.5;entryDx=0;entryDy=0;exitX=1;exitY=0.5;exitDx=0;exitDy=0;" edge="1" parent="1" source="c6HZqa-KhIeQ7jRG5_oA-1" target="c6HZqa-KhIeQ7jRG5_oA-4">
          <mxGeometry width="50" height="50" relative="1" as="geometry">
            <mxPoint x="420" y="290" as="sourcePoint" />
            <mxPoint x="490" y="250" as="targetPoint" />
          </mxGeometry>
        </mxCell>
        <mxCell id="c6HZqa-KhIeQ7jRG5_oA-10" value="" style="endArrow=classic;html=1;exitX=1;exitY=0.25;exitDx=0;exitDy=0;entryX=-0.01;entryY=0.643;entryDx=0;entryDy=0;entryPerimeter=0;" edge="1" parent="1" source="c6HZqa-KhIeQ7jRG5_oA-1" target="c6HZqa-KhIeQ7jRG5_oA-3">
          <mxGeometry width="50" height="50" relative="1" as="geometry">
            <mxPoint x="430" y="300" as="sourcePoint" />
            <mxPoint x="500" y="260" as="targetPoint" />
          </mxGeometry>
        </mxCell>
        <mxCell id="c6HZqa-KhIeQ7jRG5_oA-11" value="" style="endArrow=classic;html=1;entryX=0;entryY=0.5;entryDx=0;entryDy=0;exitX=1.01;exitY=0.637;exitDx=0;exitDy=0;exitPerimeter=0;" edge="1" parent="1" source="c6HZqa-KhIeQ7jRG5_oA-1" target="c6HZqa-KhIeQ7jRG5_oA-5">
          <mxGeometry width="50" height="50" relative="1" as="geometry">
            <mxPoint x="420" y="315" as="sourcePoint" />
            <mxPoint x="510" y="250" as="targetPoint" />
          </mxGeometry>
        </mxCell>
        <mxCell id="c6HZqa-KhIeQ7jRG5_oA-12" value="" style="endArrow=classic;html=1;entryX=0;entryY=0.5;entryDx=0;entryDy=0;exitX=1;exitY=0.75;exitDx=0;exitDy=0;" edge="1" parent="1" source="c6HZqa-KhIeQ7jRG5_oA-1" target="c6HZqa-KhIeQ7jRG5_oA-6">
          <mxGeometry width="50" height="50" relative="1" as="geometry">
            <mxPoint x="420.79999999999995" y="341.03" as="sourcePoint" />
            <mxPoint x="510" y="340" as="targetPoint" />
          </mxGeometry>
        </mxCell>
      </root>
    </mxGraphModel>
  </diagram>
</mxfile>
